HIERARCHY
ROOT joint_Root
{
	OFFSET 0.0 0.0 0.0
	CHANNELS 6 Xposition Yposition Zposition Zrotation Xrotation Yrotation 
	JOINT Hips
	{
		OFFSET -17.1583 93.1646 452.98
		CHANNELS 6 Xposition Yposition Zposition Zrotation Xrotation Yrotation 
		JOINT Spine
		{
			OFFSET 15.7357 0.0 0.0
			CHANNELS 6 Xposition Yposition Zposition Zrotation Xrotation Yrotation 
			JOINT Chest
			{
				OFFSET 8.98455 -0.406207 0.0
				CHANNELS 6 Xposition Yposition Zposition Zrotation Xrotation Yrotation 
				JOINT Neck
				{
					OFFSET 16.3773 0.0 0.0
					CHANNELS 6 Xposition Yposition Zposition Zrotation Xrotation Yrotation 
					JOINT Head
					{
						OFFSET 6.45672 0.0 0.0
						CHANNELS 6 Xposition Yposition Zposition Zrotation Xrotation Yrotation 
						End Site
						{
							OFFSET 0.0 0.0 0.0
						}
					}
				}
				JOINT Shoulder_L
				{
					OFFSET 12.9942 -0.242716 4.98039
					CHANNELS 6 Xposition Yposition Zposition Zrotation Xrotation Yrotation 
					JOINT UpperArm_L
					{
						OFFSET 5.34809 0.0 0.0
						CHANNELS 6 Xposition Yposition Zposition Zrotation Xrotation Yrotation 
						JOINT LowerArm_L
						{
							OFFSET 24.3286 1.87007e-05 0.0
							CHANNELS 6 Xposition Yposition Zposition Zrotation Xrotation Yrotation 
							JOINT Hand_L
							{
								OFFSET 22.2916 0.0 0.0
								CHANNELS 6 Xposition Yposition Zposition Zrotation Xrotation Yrotation 
								End Site
								{
									OFFSET 0.0 0.0 0.0
								}
							}
						}
					}
				}
				JOINT Shoulder_R
				{
					OFFSET 12.9945 -0.242716 -4.98039
					CHANNELS 6 Xposition Yposition Zposition Zrotation Xrotation Yrotation 
					JOINT UpperArm_R
					{
						OFFSET -5.34813 0.0 0.0
						CHANNELS 6 Xposition Yposition Zposition Zrotation Xrotation Yrotation 
						JOINT LowerArm_R
						{
							OFFSET -24.3289 0.000322201 0.0
							CHANNELS 6 Xposition Yposition Zposition Zrotation Xrotation Yrotation 
							JOINT Hand_R
							{
								OFFSET -22.2915 -0.000108084 0.0
								CHANNELS 6 Xposition Yposition Zposition Zrotation Xrotation Yrotation 
								End Site
								{
									OFFSET 0.0 0.0 0.0
								}
							}
						}
					}
				}
			}
		}
		JOINT UpperLeg_L
		{
			OFFSET -2.19248 -6.46944 0.0
			CHANNELS 6 Xposition Yposition Zposition Zrotation Xrotation Yrotation 
			JOINT LowerLeg_L
			{
				OFFSET 39.0811 0.0 -1.23785e-05
				CHANNELS 6 Xposition Yposition Zposition Zrotation Xrotation Yrotation 
				JOINT Foot_L
				{
					OFFSET 40.9854 0.0 -1.26872e-05
					CHANNELS 6 Xposition Yposition Zposition Zrotation Xrotation Yrotation 
					JOINT Toes_L
					{
						OFFSET 11.7543 0.0 0.0
						CHANNELS 6 Xposition Yposition Zposition Zrotation Xrotation Yrotation 
						End Site
						{
							OFFSET 0.0 0.0 0.0
						}
					}
				}
			}
		}
		JOINT UpperLeg_R
		{
			OFFSET -2.19251 6.46944 0.0
			CHANNELS 6 Xposition Yposition Zposition Zrotation Xrotation Yrotation 
			JOINT LowerLeg_R
			{
				OFFSET -39.0811 -0.00228153 -0.0401928
				CHANNELS 6 Xposition Yposition Zposition Zrotation Xrotation Yrotation 
				JOINT Foot_R
				{
					OFFSET -40.9854 0.0 0.0
					CHANNELS 6 Xposition Yposition Zposition Zrotation Xrotation Yrotation 
					JOINT Toes_R
					{
						OFFSET -11.7543 0.0 0.0
						CHANNELS 6 Xposition Yposition Zposition Zrotation Xrotation Yrotation 
						End Site
						{
							OFFSET 0.0 0.0 0.0
						}
					}
				}
			}
		}
	}
}
MOTION
Frames:	7
Frame Time:	0.0333333
0.000000 0.000000 0.000000 0.000000 0.000000 -0.000000 -223.880000 89.652800 241.148000 -79.133800 88.375400 165.580000 15.735700 0.000005 -0.000001 49.472100 85.107600 -47.749100 8.984550 -0.406207 -0.000000 -0.225744 -6.477040 3.434210 16.377300 -0.000001 -0.000001 1.000920 5.361120 -0.175443 6.456720 -0.000001 -0.000000 6.672120 10.157100 -4.407610 12.994200 -0.242716 4.980390 -92.195900 7.161310 -72.903000 5.348090 -0.000007 -0.000001 -73.595000 -3.020980 -9.534780 24.328600 0.000019 0.000005 31.790000 20.948700 -60.020700 22.291600 -0.000001 0.000005 59.964900 4.265470 20.321800 12.994500 -0.242716 -4.980390 89.595400 1.182310 -71.106300 -5.348130 -0.000001 -0.000004 -63.094000 -11.720000 13.874300 -24.328900 0.000322 -0.000009 0.228373 2.457060 -5.335760 -22.291500 -0.000108 -0.000004 50.666900 5.376340 -2.183850 -2.192480 -6.469440 -0.000000 -176.500000 -3.557900 9.808100 39.081100 -0.000007 -0.000012 0.000077 -0.000242 17.664300 40.985400 -0.000006 -0.000013 -0.909910 25.093800 -67.032100 11.754300 -0.000000 0.000003 -0.012342 -0.120383 -21.484800 -2.192510 6.469440 -0.000001 -176.541000 0.956367 152.727000 -39.081100 -0.002282 -0.040193 0.009479 -0.048000 7.284190 -40.985400 0.000008 0.000006 -6.484400 -7.284760 -61.564500 -11.754300 -0.000006 -0.000006 -0.002694 0.204760 -8.265130
0.000000 0.000000 0.000000 0.000000 0.000000 -0.000000 -219.715000 89.193000 241.728000 -53.162800 87.732100 138.070000 15.735700 0.000005 -0.000001 43.548800 85.635900 -41.308600 8.984550 -0.406207 -0.000000 -1.624120 -6.508090 4.390680 16.377300 -0.000001 -0.000001 0.981471 5.312420 -0.251677 6.456720 -0.000001 -0.000000 6.712430 10.166700 -4.603180 12.994200 -0.242716 4.980390 -92.395700 7.849790 -72.969000 5.348090 -0.000007 -0.000001 -74.104000 -1.217950 -7.215570 24.328600 0.000019 0.000005 30.197500 23.704500 -55.363000 22.291600 -0.000001 0.000005 59.459900 4.298460 19.815400 12.994500 -0.242716 -4.980390 89.384200 1.795000 -71.062600 -5.348130 -0.000001 -0.000004 -63.703800 -10.559600 11.947900 -24.328900 0.000322 -0.000009 0.167625 1.603890 -6.003870 -22.291500 -0.000108 -0.000004 50.548300 5.393520 -2.728410 -2.192480 -6.469440 -0.000000 -174.939000 -3.833450 8.862460 39.081100 -0.000007 -0.000012 0.006921 -0.018442 20.569700 40.985400 -0.000006 -0.000013 -0.470607 25.072200 -64.552500 11.754300 -0.000000 0.000003 -0.045010 -0.279509 -28.074000 -2.192510 6.469440 -0.000001 -173.856000 0.309000 148.123000 -39.081100 -0.002282 -0.040193 -0.000988 0.015775 15.306200 -40.985400 0.000008 0.000006 4.614840 -8.757530 -56.007700 -11.754300 -0.000006 -0.000006 -0.002419 0.201510 -8.397360
0.000000 0.000000 0.000000 0.000000 0.000000 -0.000000 -215.066000 88.962000 242.304000 -37.566200 86.417700 121.668000 15.735700 0.000005 -0.000001 38.059200 86.177600 -35.123600 8.984550 -0.406207 -0.000000 -2.892760 -6.289750 5.717640 16.377300 -0.000001 -0.000001 1.177330 5.144600 -0.453528 6.456720 -0.000001 -0.000000 7.083250 9.818360 -4.973520 12.994200 -0.242716 4.980390 -92.712000 8.827310 -72.845500 5.348090 -0.000007 -0.000001 -74.685200 0.243936 -4.660000 24.328600 0.000019 0.000005 27.455000 27.180300 -48.678700 22.291600 -0.000001 0.000005 58.693900 4.361710 18.829800 12.994500 -0.242716 -4.980390 89.188600 2.343840 -70.899600 -5.348130 -0.000001 -0.000004 -64.520500 -7.986720 10.022600 -24.328900 0.000322 -0.000009 0.057487 0.497055 -6.715340 -22.291500 -0.000108 -0.000004 49.899900 5.404240 -3.076160 -2.192480 -6.469440 -0.000000 -173.440000 -2.945300 7.792360 39.081100 -0.000007 -0.000012 0.015162 -0.033141 24.584600 40.985400 -0.000006 -0.000013 0.193103 23.633900 -59.485800 11.754300 -0.000000 0.000003 -0.115182 -0.480774 -36.723500 -2.192510 6.469440 -0.000001 -171.660000 0.185777 145.872000 -39.081100 -0.002282 -0.040193 0.070149 -0.161357 22.498700 -40.985400 0.000008 0.000006 6.665920 -8.463700 -55.814400 -11.754300 -0.000006 -0.000006 -0.004169 0.220852 -7.610040
0.000000 0.000000 0.000000 0.000000 0.000000 -0.000000 -210.192000 88.830100 242.796000 -28.208900 85.288000 113.039000 15.735700 0.000005 -0.000001 40.076300 86.410100 -36.555500 8.984550 -0.406207 -0.000000 -2.961590 -5.820930 6.896830 16.377300 -0.000001 -0.000001 1.179370 5.041070 -0.498275 6.456720 -0.000001 -0.000000 7.210860 9.331450 -5.404910 12.994200 -0.242716 4.980390 -92.780400 8.891440 -72.556600 5.348090 -0.000007 -0.000001 -76.490300 0.501439 -2.549210 24.328600 0.000019 0.000005 21.021700 28.159300 -39.155700 22.291600 -0.000001 0.000005 57.130000 4.385020 18.461500 12.994500 -0.242716 -4.980390 89.197100 2.340810 -71.062000 -5.348130 -0.000001 -0.000004 -66.348700 -4.994770 7.149630 -24.328900 0.000322 -0.000009 -0.010056 -0.073469 -6.998280 -22.291500 -0.000108 -0.000004 49.349100 5.417590 -3.518210 -2.192480 -6.469440 -0.000000 -172.137000 -2.559250 6.546150 39.081100 -0.000007 -0.000012 0.020796 -0.034836 30.834900 40.985400 -0.000006 -0.000013 0.110490 22.497200 -51.318100 11.754300 -0.000000 0.000003 -0.173160 -0.598554 -42.047900 -2.192510 6.469440 -0.000001 -170.052000 0.019313 146.491000 -39.081100 -0.002282 -0.040193 0.153758 -0.278847 28.349400 -40.985400 0.000008 0.000006 6.310990 -8.434890 -57.980600 -11.754300 -0.000006 -0.000006 -0.007654 0.252849 -6.305220
0.000000 0.000000 0.000000 0.000000 0.000000 -0.000000 -205.514000 88.638500 243.413000 -29.775700 84.026100 116.259000 15.735700 0.000005 -0.000001 46.382100 86.398100 -42.475300 8.984550 -0.406207 -0.000000 -2.361540 -5.312800 7.708230 16.377300 -0.000001 -0.000001 1.226190 4.509250 -0.268238 6.456720 -0.000001 -0.000000 7.140080 8.462830 -5.463060 12.994200 -0.242716 4.980390 -92.737300 8.692430 -72.445100 5.348090 -0.000007 -0.000001 -78.129800 -0.993051 -1.534480 24.328600 0.000019 0.000005 14.608700 29.026900 -28.243000 22.291600 -0.000001 0.000005 56.140000 4.472890 17.045800 12.994500 -0.242716 -4.980390 89.139200 2.528370 -71.191200 -5.348130 -0.000001 -0.000004 -68.198800 -2.137490 3.953670 -24.328900 0.000322 -0.000009 -0.082226 -0.620397 -7.455790 -22.291500 -0.000108 -0.000004 48.913200 5.422280 -3.676060 -2.192480 -6.469440 -0.000000 -170.403000 -1.926510 3.479290 39.081100 -0.000007 -0.000012 0.037214 -0.043972 40.239900 40.985400 -0.000006 -0.000013 -2.792750 22.104400 -41.277500 11.754300 -0.000000 0.000003 -0.087520 -0.412488 -33.736200 -2.192510 6.469440 -0.000001 -168.451000 1.041360 148.750000 -39.081100 -0.002282 -0.040193 0.294251 -0.440795 33.428200 -40.985400 0.000008 0.000006 5.982290 -8.465090 -63.078100 -11.754300 -0.000006 -0.000006 -0.008483 0.259601 -6.029440
0.000000 0.000000 0.000000 0.000000 0.000000 -0.000000 -201.340000 88.510600 244.072000 -35.411400 82.407200 123.439000 15.735700 0.000005 -0.000001 53.859400 86.471200 -49.648700 8.984550 -0.406207 -0.000000 -1.888540 -4.515570 8.349070 16.377300 -0.000001 -0.000001 1.202410 3.533850 0.231471 6.456720 -0.000001 -0.000000 7.173870 7.086430 -5.094690 12.994200 -0.242716 4.980390 -92.795600 8.916800 -72.513400 5.348090 -0.000007 -0.000001 -77.792100 -1.124420 -0.314194 24.328600 0.000019 0.000005 9.969800 29.244800 -19.789100 22.291600 -0.000001 0.000005 55.548600 4.471250 17.072600 12.994500 -0.242716 -4.980390 88.967900 3.018220 -71.111700 -5.348130 -0.000001 -0.000004 -69.449500 0.671742 0.808376 -24.328900 0.000322 -0.000009 -0.296999 -1.974410 -8.525930 -22.291500 -0.000108 -0.000004 48.078100 5.425260 -3.777320 -2.192480 -6.469440 -0.000000 -168.469000 0.087950 -2.174280 39.081100 -0.000007 -0.000012 0.150174 -0.123668 50.527900 40.985400 -0.000006 -0.000013 -11.715800 17.634700 -28.808600 11.754300 -0.000000 0.000003 0.002098 0.050636 -14.522800 -2.192510 6.469440 -0.000001 -166.747000 3.534090 151.758000 -39.081100 -0.002282 -0.040193 0.434017 -0.588475 36.202900 -40.985400 0.000008 0.000006 6.046400 -7.873850 -67.417900 -11.754300 -0.000006 -0.000006 -0.008511 0.259820 -6.020470
0.000000 0.000000 0.000000 0.000000 0.000000 -0.000000 -197.581000 88.685200 244.605000 -38.862300 81.081300 127.859000 15.735700 0.000005 -0.000001 62.547200 86.684100 -58.190900 8.984550 -0.406207 -0.000000 -1.737050 -3.417440 8.661100 16.377300 -0.000001 -0.000001 1.102510 2.582320 1.062080 6.456720 -0.000001 -0.000000 7.183550 5.675650 -4.645660 12.994200 -0.242716 4.980390 -92.763800 8.794300 -72.476600 5.348090 -0.000007 -0.000001 -76.766900 -5.364800 1.634270 24.328600 0.000019 0.000005 8.193170 30.940900 -15.644000 22.291600 -0.000001 0.000005 54.272500 4.475890 16.997000 12.994500 -0.242716 -4.980390 88.910100 3.208830 -71.227900 -5.348130 -0.000001 -0.000004 -70.499600 3.825660 -2.436240 -24.328900 0.000322 -0.000009 -0.549910 -3.005130 -10.355400 -22.291500 -0.000108 -0.000004 47.881400 5.441530 -4.339650 -2.192480 -6.469440 -0.000000 -167.159000 1.229010 -8.527510 39.081100 -0.000007 -0.000012 0.275014 -0.157986 60.123500 40.985400 -0.000006 -0.000013 -13.219900 11.330100 -28.090000 11.754300 -0.000000 0.000003 0.002032 0.047951 -14.631700 -2.192510 6.469440 -0.000001 -165.510000 6.026200 155.240000 -39.081100 -0.002282 -0.040193 0.509810 -0.685522 36.461500 -40.985400 0.000008 0.000006 6.301880 -6.970960 -70.603000 -11.754300 -0.000006 -0.000006 -0.009518 0.267669 -5.699660
